# xmcd
#
# Track frame offsets:
#	173
#	29050
#	46043
#	65425
#	93348
#	130080
#	163765
#	196205
#	219890
#	248298
#	266608
#	288425
#
# Disc length: 4157 seconds
#
# Revision: 2
# Processed by: cddbd v1.5.2PL0 Copyright (c) Steve Scherf et al.
# Submitted via: audiograbber 1.83.01
#
DISCID=a1103b0c
DTITLE=Various Artist - Jazz Ultimate - CD2
DYEAR=1996
DGENRE=Jazz
TTITLE0=Paul Horn - Work Song
TTITLE1=Stan Getz/Paul Horn - Nature Boy
TTITLE2=Dexter Gordon - Lullaby of Birdland
TTITLE3=Lionel Hampton - Take The 'A' Train
TTITLE4=Wynton Marsalis - My Funny Valentine
TTITLE5=Michael Urbaniak - Softly as in a Morning Sunrise
TTITLE6=Dave Brubeck - Take 5
TTITLE7=Gary Burton - African Flower
TTITLE8=Gerry Mulligan - Applecore
TTITLE9=Stepahn Grappelli/Phil Woods - Have You Met Miss Jones?
TTITLE10=Sonny Stitt - Sonny's Blues
TTITLE11=Thelonius Monk - Off Minor
EXTD=YEAR: 1996
EXTT0=
EXTT1=
EXTT2=
EXTT3=
EXTT4=
EXTT5=
EXTT6=
EXTT7=
EXTT8=
EXTT9=
EXTT10=
EXTT11=
PLAYORDER=
